<svg width="50" height="50" viewBox="0 0 50 50" fill="none" xmlns="http://www.w3.org/2000/svg">
<circle cx="25" cy="25" r="25" fill="#FECB15"/>
<path d="M25 37.5C29.97 37.5 35 35.7825 35 32.5V17.5C35 14.2175 29.97 12.5 25 12.5C20.03 12.5 15 14.2175 15 17.5V32.5C15 35.7825 20.03 37.5 25 37.5ZM25 35C20.3475 35 17.5 33.3812 17.5 32.5V30.915C19.4263 31.9625 22.2213 32.5 25 32.5C27.7788 32.5 30.5738 31.9625 32.5 30.915V32.5C32.5 33.3812 29.6525 35 25 35ZM25 15C29.6525 15 32.5 16.6187 32.5 17.5C32.5 18.3812 29.6525 20 25 20C20.3475 20 17.5 18.3812 17.5 17.5C17.5 16.6187 20.3475 15 25 15ZM17.5 20.915C19.4263 21.9625 22.2213 22.5 25 22.5C27.7788 22.5 30.5738 21.9625 32.5 20.915V22.5C32.5 23.3812 29.6525 25 25 25C20.3475 25 17.5 23.3812 17.5 22.5V20.915ZM17.5 25.915C19.4263 26.9625 22.2213 27.5 25 27.5C27.7788 27.5 30.5738 26.9625 32.5 25.915V27.5C32.5 28.3812 29.6525 30 25 30C20.3475 30 17.5 28.3812 17.5 27.5V25.915Z" fill="white"/>
</svg>
