<!-- <svg width="30" height="30" viewBox="0 0 30 30" fill="none" xmlns="http://www.w3.org/2000/svg">
<path d="M9.21198 27.9129L24.2123 12.9126L17.0874 5.78767L2.0871 20.788C1.88059 20.9948 1.7339 21.2536 1.66258 21.537L0 30L8.4614 28.3374C8.74549 28.2664 9.00537 28.1195 9.21198 27.9129ZM29.0548 8.07009C29.66 7.46469 30 6.6437 30 5.78767C30 4.93164 29.66 4.11065 29.0548 3.50526L26.4947 0.945206C25.8893 0.339991 25.0684 0 24.2123 0C23.3563 0 22.5353 0.339991 21.9299 0.945206L19.3699 3.50526L26.4947 10.6301L29.0548 8.07009Z" fill="#AEAEAE"/>
</svg> -->

<svg width="30" height="30" viewBox="0 0 22 22" fill="none" xmlns="http://www.w3.org/2000/svg">
<path d="M16.4745 5.40801L18.5917 7.52524M17.8358 3.54289L12.1086 9.27005C11.8131 9.56562 11.6116 9.94206 11.5296 10.3519L11 13L13.6481 12.4704C14.0579 12.3884 14.4344 12.1869 14.7299 11.8914L20.4571 6.16423C21.181 5.44037 21.181 4.26676 20.4571 3.5429C19.7332 2.81904 18.5596 2.81903 17.8358 3.54289Z" stroke="#444" stroke-width="2" stroke-linecap="round" stroke-linejoin="round"/>
<path d="M19 15V18C19 19.1046 18.1046 20 17 20H6C4.89543 20 4 19.1046 4 18V7C4 5.89543 4.89543 5 6 5H9" stroke="#444" stroke-width="2" stroke-linecap="round" stroke-linejoin="round"/>
</svg>