<svg width="60" height="60" viewBox="0 0 60 60" fill="none" xmlns="http://www.w3.org/2000/svg">
<rect width="60" height="60" rx="30" fill="#F5F5F5"/>
<mask id="mask0_660_1777" style="mask-type:alpha" maskUnits="userSpaceOnUse" x="10" y="10" width="40" height="40">
<path d="M30.0001 30.0003C33.6834 30.0003 36.6667 27.017 36.6667 23.3337C36.6667 19.6503 33.6834 16.667 30.0001 16.667C26.3167 16.667 23.3334 19.6503 23.3334 23.3337C23.3334 27.017 26.3167 30.0003 30.0001 30.0003ZM30.0001 33.3337C25.5501 33.3337 16.6667 35.567 16.6667 40.0003V41.667C16.6667 42.5837 17.4167 43.3337 18.3334 43.3337H41.6667C42.5834 43.3337 43.3334 42.5837 43.3334 41.667V40.0003C43.3334 35.567 34.4501 33.3337 30.0001 33.3337Z" fill="black"/>
</mask>
<g mask="url(#mask0_660_1777)">
<ellipse cx="29.9998" cy="24.9204" rx="18.0952" ry="18.0952" fill="#AEAEAE"/>
</g>
</svg>
