<svg width="18" height="26" viewBox="0 0 18 26" fill="none" xmlns="http://www.w3.org/2000/svg">
<path d="M9 25.5C6.5625 25.5 4.49458 24.6508 2.79625 22.9525C1.09792 21.2542 0.249167 19.1867 0.250001 16.75V11.75H17.75V16.75C17.75 19.1875 16.9008 21.2554 15.2025 22.9537C13.5042 24.6521 11.4367 25.5008 9 25.5ZM0.250001 9.25C0.250001 7.0625 0.958334 5.15083 2.375 3.515C3.79167 1.87917 5.58333 0.905417 7.75 0.59375V9.25H0.250001ZM10.25 9.25V0.59375C12.4167 0.90625 14.2083 1.88 15.625 3.515C17.0417 5.15 17.75 7.06167 17.75 9.25H10.25Z" fill="#AEAEAE"/>
</svg>
