<!-- <svg width="18" height="26" viewBox="0 0 18 26" fill="none" xmlns="http://www.w3.org/2000/svg">
<path d="M9 25.5C6.5625 25.5 4.49458 24.6508 2.79625 22.9525C1.09792 21.2542 0.249167 19.1867 0.250001 16.75V11.75H17.75V16.75C17.75 19.1875 16.9008 21.2554 15.2025 22.9537C13.5042 24.6521 11.4367 25.5008 9 25.5ZM0.250001 9.25C0.250001 7.0625 0.958334 5.15083 2.375 3.515C3.79167 1.87917 5.58333 0.905417 7.75 0.59375V9.25H0.250001ZM10.25 9.25V0.59375C12.4167 0.90625 14.2083 1.88 15.625 3.515C17.0417 5.15 17.75 7.06167 17.75 9.25H10.25Z" fill="#AEAEAE"/>
</svg> -->

<svg width="30" height="30" viewBox="0 0 22 22" fill="none" xmlns="http://www.w3.org/2000/svg">
<path d="M9 3.5V2M5.06066 5.06066L4 4M5.06066 13L4 14.0607M13 5.06066L14.0607 4M3.5 9H2M15.8645 16.1896L13.3727 20.817C13.0881 21.3457 12.9457 21.61 12.7745 21.6769C12.6259 21.7349 12.4585 21.7185 12.324 21.6328C12.1689 21.534 12.0806 21.2471 11.9038 20.6733L8.44519 9.44525C8.3008 8.97651 8.2286 8.74213 8.28669 8.58383C8.33729 8.44595 8.44595 8.33729 8.58383 8.2867C8.74213 8.22861 8.9765 8.3008 9.44525 8.44519L20.6732 11.9038C21.247 12.0806 21.5339 12.169 21.6327 12.324C21.7185 12.4586 21.7348 12.6259 21.6768 12.7745C21.61 12.9458 21.3456 13.0881 20.817 13.3728L16.1896 15.8645C16.111 15.9068 16.0717 15.9279 16.0374 15.9551C16.0068 15.9792 15.9792 16.0068 15.9551 16.0374C15.9279 16.0717 15.9068 16.111 15.8645 16.1896Z" stroke="#444" stroke-width="2" stroke-linecap="round" stroke-linejoin="round"/>
</svg>
